<?xml version="1.0" standalone="no"?>
<!DOCTYPE svg PUBLIC "-//W3C//DTD SVG 20010904//EN"
 "http://www.w3.org/TR/2001/REC-SVG-20010904/DTD/svg10.dtd">
<svg version="1.0" xmlns="http://www.w3.org/2000/svg"
 width="800.000000pt" height="800.000000pt" viewBox="0 0 800.000000 800.000000"
 preserveAspectRatio="xMidYMid meet">

<g transform="translate(0.000000,800.000000) scale(0.100000,-0.100000)"
fill="#FFFFFF" stroke="none">
<path d="M993 7650 c-207 -22 -362 -95 -484 -228 -71 -78 -133 -197 -154 -298
-17 -80 -19 -228 -5 -305 6 -30 159 -565 341 -1189 363 -1244 334 -1162 424
-1194 27 -10 184 -23 490 -41 248 -14 635 -37 860 -50 226 -14 903 -54 1505
-90 602 -36 1214 -72 1360 -81 296 -17 333 -26 370 -86 29 -47 28 -134 -3
-179 -45 -69 4 -63 -1102 -129 -556 -33 -1237 -74 -1515 -90 -278 -17 -836
-50 -1241 -74 -784 -47 -787 -47 -809 -99 -9 -21 -635 -2154 -671 -2287 -25
-92 -25 -254 1 -356 47 -186 168 -350 315 -426 185 -96 455 -128 646 -78 67
18 5959 2971 6033 3024 187 133 293 330 304 563 4 95 1 122 -18 185 -47 159
-152 306 -298 418 -24 18 -1297 672 -2830 1452 -3458 1762 -3142 1604 -3238
1622 -106 20 -194 25 -281 16z"/>
</g>
</svg>
